<svg width="34" height="33" viewBox="0 0 34 33" fill="none" xmlns="http://www.w3.org/2000/svg">
<path d="M1.20905 16.7586C1.20905 25.2933 8.21117 32.2227 16.862 32.2227C25.5128 32.2227 32.5149 25.2933 32.5149 16.7586C32.5149 8.22391 25.5128 1.29449 16.862 1.29449C8.21117 1.29449 1.20905 8.22391 1.20905 16.7586Z" stroke="#DCDCDC" stroke-width="1.07043"/>
<path d="M10.0177 17.1372C9.8087 16.9282 9.8087 16.5893 10.0177 16.3803L13.4238 12.9742C13.6328 12.7652 13.9717 12.7652 14.1807 12.9742C14.3897 13.1833 14.3897 13.5221 14.1807 13.7312L11.1531 16.7588L14.1807 19.7864C14.3897 19.9954 14.3897 20.3343 14.1807 20.5433C13.9717 20.7523 13.6328 20.7523 13.4238 20.5433L10.0177 17.1372ZM23.3276 17.294H10.3962V16.2236H23.3276V17.294Z" fill="#151515"/>
</svg>
