<svg width="34" height="33" viewBox="0 0 34 33" fill="none" xmlns="http://www.w3.org/2000/svg">
<path d="M32.7611 16.7586C32.7611 25.2933 25.759 32.2227 17.1081 32.2227C8.45734 32.2227 1.45523 25.2933 1.45523 16.7586C1.45523 8.22391 8.45734 1.29449 17.1081 1.29449C25.759 1.29449 32.7611 8.22391 32.7611 16.7586Z" stroke="#DCDCDC" stroke-width="1.07043"/>
<path d="M23.9523 17.1372C24.1614 16.9282 24.1614 16.5893 23.9523 16.3803L20.5463 12.9742C20.3372 12.7652 19.9984 12.7652 19.7894 12.9742C19.5803 13.1833 19.5803 13.5221 19.7894 13.7312L22.817 16.7588L19.7894 19.7864C19.5803 19.9954 19.5803 20.3343 19.7894 20.5433C19.9984 20.7523 20.3372 20.7523 20.5463 20.5433L23.9523 17.1372ZM10.6425 17.294H23.5739V16.2236H10.6425V17.294Z" fill="#151515"/>
</svg>
