<svg width="14" height="15" viewBox="0 0 14 15" fill="none" xmlns="http://www.w3.org/2000/svg">
<path d="M11.5834 11.7947C12.8908 10.5899 13.7112 8.866 13.7112 6.95306C13.7112 3.32081 10.7564 0.367676 7.12584 0.367676C3.49359 0.367562 0.539001 3.32255 0.539001 6.95306C0.539001 8.82207 1.32214 10.5103 2.57733 11.7101L0.998135 13.2893C0.644852 13.6426 0.644852 14.2156 0.998135 14.5689C1.35142 14.9222 1.92446 14.9222 2.27777 14.5689L7.03802 9.80869L11.7983 14.5689C11.9741 14.7464 12.2069 14.8343 12.4381 14.8343C12.6693 14.8343 12.9004 14.7464 13.0779 14.5689C13.4312 14.2157 13.4312 13.6426 13.0779 13.2893L11.5834 11.7947ZM6.39669 7.88889L3.85527 10.4303C2.92895 9.55768 2.34774 8.322 2.34774 6.95271C2.34774 4.31853 4.4902 2.17619 7.12427 2.17619C9.75834 2.17619 11.9008 4.31865 11.9008 6.95271C11.9008 8.36747 11.2821 9.63891 10.3021 10.5149L7.67606 7.88889C7.32278 7.53572 6.75131 7.53572 6.39643 7.88889H6.39669Z" fill="#151515"/>
</svg>
