<svg width="78" height="80" viewBox="0 0 78 80" fill="none" xmlns="http://www.w3.org/2000/svg">
<mask id="mask0_64_9015" style="mask-type:alpha" maskUnits="userSpaceOnUse" x="8" y="0" width="66" height="58">
<path fill-rule="evenodd" clip-rule="evenodd" d="M49.0468 28.5307L65.7025 57.3374H65.7618H73.8822H73.9414L49.1061 14.3645L28.3605 50.2246H20.2994C28.5383 35.9398 36.718 21.655 44.9569 7.37026L45.0162 7.31098L40.9264 0.316772L8.02989 57.3374C24.5078 57.3374 41.0449 57.3374 57.5228 57.3374L53.433 50.2839H36.5402L49.0468 28.5307Z" fill="white"/>
</mask>
<g mask="url(#mask0_64_9015)">
<path d="M73.8822 0.316772H8.02989V57.3374H73.8822V0.316772Z" fill="url(#paint0_linear_64_9015)"/>
</g>
<path fill-rule="evenodd" clip-rule="evenodd" d="M72.756 66.0505H67.4807V63.9166H74.6527H75.364H77.6163L72.0447 70.1403H77.32V72.2741H70.1479H69.4367H67.1843L72.756 66.0505ZM43.6529 70.1403H39.6816L40.8671 68.0065H43.6529V63.9759H45.7868V68.0657L50.3508 63.9759H53.3144L48.7504 68.0065L53.5515 72.2741H50.5879L47.2686 69.3105L45.7868 70.6145V72.3334H43.6529V70.1403ZM5.30332 68.0065H9.09679V66.1097H6.37024L5.30332 68.0065ZM9.09679 70.1403H4.11786L2.9324 72.2741H0.383667L5.06623 63.9166H5.65896H7.5557H9.03752H10.1044H11.1713V72.2741H9.03752V70.1403H9.09679ZM28.4198 68.0065H32.2132V66.1097H29.4867L28.4198 68.0065ZM32.2132 70.1403H27.2343L26.0489 72.2741H23.5001L28.1827 63.9166H28.7754H30.6722H32.154H33.2209H34.2878V67.9472H38.2591L37.0736 70.081H34.2878V72.2148H32.154V70.1403H32.2132ZM59.8345 68.0065H63.6279V66.1097H60.9014L59.8345 68.0065ZM63.6279 70.1403H58.649L57.4635 72.2741H54.9148L59.5974 63.9166H60.1901H62.0868H63.5686H64.6356H65.7025V72.2741H63.5686V70.1403H63.6279ZM15.0241 63.9166H12.8903V70.1403V72.2741H15.0241H22.1368V70.1403H15.0241V63.9166V63.9166Z" fill="#013149"/>
<path fill-rule="evenodd" clip-rule="evenodd" d="M28.5976 75.8306H25.9896C25.6932 75.8306 25.3969 76.0677 25.3969 76.4233V78.3793C25.3969 78.6757 25.6932 78.9721 25.9896 78.9721H28.5976C28.894 78.9721 29.1903 78.735 29.1903 78.3793V76.4233C29.1903 76.127 28.9532 75.8306 28.5976 75.8306ZM60.4272 77.9052L58.5304 77.4902C58.2934 77.431 58.1155 77.3717 57.9377 77.3124C57.8192 77.2532 57.7006 77.1346 57.5821 77.0753C57.4635 76.9568 57.4043 76.779 57.4043 76.6012V76.1862C57.4043 75.8899 57.4635 75.6528 57.7006 75.475C57.8784 75.2972 58.1155 75.1786 58.4119 75.1786H61.5534V75.8899H58.4119C58.3526 75.8899 58.2934 75.9492 58.2341 75.9492C58.1748 76.0084 58.1748 76.0677 58.1748 76.1862V76.6012C58.1748 76.7197 58.649 76.8383 58.7675 76.8383L60.8421 77.3124C61.1385 77.3717 61.4348 77.5495 61.6126 77.7866C61.6719 77.9052 61.7312 78.083 61.7312 78.2015V78.6757C61.7312 78.9721 61.6126 79.2092 61.4348 79.387C61.257 79.5648 60.9606 79.6833 60.7236 79.6833H57.5228V78.9721H60.7236C60.9014 78.9721 61.0199 78.9128 61.0199 78.6757V78.2015C61.0199 78.083 60.7828 78.0237 60.6643 77.9644L60.4272 77.9052ZM56.2781 75.1193V75.8306H53.3144C53.0181 75.8306 52.7217 76.0677 52.7217 76.4233V78.3793C52.7217 78.6757 53.0181 78.9721 53.3144 78.9721H56.2781V79.6833H53.3144C52.6032 79.6833 52.0104 79.0906 52.0104 78.3793V76.4233C52.0104 75.7121 52.6032 75.1193 53.3144 75.1193H56.2781ZM50.5286 79.6241H49.8173V75.1193H50.5286V79.6241ZM46.0831 75.8306H44.3049V75.1193H48.6319V75.8306H46.7944V79.6241H46.0831V75.8306ZM42.2304 77.9052L40.3336 77.4902C40.0966 77.431 39.9187 77.3717 39.7409 77.3124C39.6224 77.2532 39.5038 77.1346 39.3853 77.0753C39.2667 76.9568 39.2075 76.779 39.2075 76.6012V76.1862C39.2075 75.8899 39.2667 75.6528 39.5038 75.475C39.6816 75.2972 39.9187 75.1786 40.2151 75.1786H43.3566V75.8899H40.2151C40.1558 75.8899 40.0966 75.9492 40.0373 75.9492C39.978 76.0084 39.978 76.0677 39.978 76.1862V76.6012C39.978 76.7197 40.4522 76.8383 40.5707 76.8383L42.6453 77.3124C42.9417 77.3717 43.238 77.5495 43.4158 77.7866C43.4751 77.9052 43.5344 78.083 43.5344 78.2015V78.6757C43.5344 78.9721 43.4158 79.2092 43.238 79.387C43.0602 79.5648 42.7638 79.6833 42.5267 79.6833H39.326V78.9721H42.4675C42.6453 78.9721 42.7638 78.9128 42.7638 78.6757V78.2015C42.7638 78.083 42.5267 78.0237 42.4082 77.9644L42.2304 77.9052ZM37.9627 79.6241H37.2515V75.1193H37.9627V79.6241ZM35.2954 78.9128V77.7273H33.5765V77.0161H35.9474V79.6241H32.5689C31.8576 79.6241 31.2649 79.0314 31.2649 78.3201V76.4233C31.2649 76.0677 31.3834 75.7713 31.6205 75.5342C31.8576 75.2972 32.2133 75.1193 32.5096 75.1193H35.9474V75.8306H32.6282C32.2725 75.8306 32.0354 76.127 32.0354 76.4233V78.3201C32.0354 78.6164 32.2725 78.9128 32.6282 78.9128H35.2954V78.9128ZM28.5976 79.6241H25.9896C25.2783 79.6241 24.6856 79.0314 24.6856 78.3201V76.3641C24.6856 75.6528 25.2783 75.0601 25.9896 75.0601H28.5976C29.3089 75.0601 29.9016 75.6528 29.9016 76.3641V78.3201C29.9016 79.0906 29.3089 79.6241 28.5976 79.6241ZM23.915 79.6241H21.0699C20.5958 79.6241 20.2401 79.2684 20.2401 78.7943V75.0601H20.9514V78.7943C20.9514 78.8535 21.0107 78.9128 21.0699 78.9128H23.915V79.6241V79.6241Z" fill="#013149"/>
<defs>
<linearGradient id="paint0_linear_64_9015" x1="73.8843" y1="28.8139" x2="8.04027" y2="28.8139" gradientUnits="userSpaceOnUse">
<stop stop-color="#B98600"/>
<stop offset="1" stop-color="#FBC632"/>
</linearGradient>
</defs>
</svg>
