<svg width="114" height="81" viewBox="0 0 114 81" fill="none" xmlns="http://www.w3.org/2000/svg">
<path fill-rule="evenodd" clip-rule="evenodd" d="M57.0814 0.813232C34.9538 0.813232 16.8938 18.6146 16.8938 40.4252C16.8938 62.2358 34.9538 80.0371 57.0814 80.0371C79.209 80.0371 97.269 62.2358 97.269 40.4252C97.269 18.6146 79.3717 0.813232 57.0814 0.813232Z" fill="#F5BE28"/>
<path d="M3.87745 65.1228H7.94502C8.27043 65.1228 8.59583 65.4435 8.59583 65.7643C8.59583 66.085 8.27043 66.4058 7.94502 66.4058H3.71474C3.38933 66.4058 3.06393 66.085 3.06393 65.7643C3.06393 65.4435 3.38934 65.1228 3.87745 65.1228Z" fill="#151515"/>
<path d="M89.4591 62.5564C89.1337 62.5564 88.8083 62.2357 88.8083 61.9149C88.8083 61.5942 89.1337 61.2734 89.4591 61.2734H91.8996C92.225 61.2734 92.5504 61.5942 92.5504 61.9149C92.5504 62.2357 92.225 62.5564 91.8996 62.5564H89.4591Z" fill="#151515"/>
<path d="M89.4591 60.6321C89.1337 60.6321 88.8083 60.3113 88.8083 59.9906C88.8083 59.6699 89.1337 59.3491 89.4591 59.3491H91.8996C92.225 59.3491 92.5504 59.6699 92.5504 59.9906C92.5504 60.3113 92.225 60.6321 91.8996 60.6321H89.4591Z" fill="#151515"/>
<path d="M24.0528 61.1133H26.4934C26.8188 61.1133 27.1442 61.434 27.1442 61.7548C27.1442 62.0755 26.8188 62.3962 26.4934 62.3962H24.0528C23.7274 62.3962 23.402 62.0755 23.402 61.7548C23.402 61.434 23.7274 61.1133 24.0528 61.1133Z" fill="#151515"/>
<path d="M24.0528 59.3491H26.4934C26.8188 59.3491 27.1442 59.6699 27.1442 59.9906C27.1442 60.3113 26.8188 60.6321 26.4934 60.6321H24.0528C23.7274 60.6321 23.402 60.3113 23.402 59.9906C23.402 59.6699 23.7274 59.3491 24.0528 59.3491Z" fill="#151515"/>
<path d="M100.523 27.7555C100.523 27.4348 100.848 27.114 101.174 27.114H104.102C104.428 27.114 104.753 27.4348 104.753 27.7555C104.753 28.0763 104.428 28.397 104.102 28.397H101.174C100.848 28.397 100.523 28.0763 100.523 27.7555Z" fill="#151515"/>
<path d="M1.76231 50.689C2.08772 50.689 2.41312 51.0097 2.41312 51.3304V53.2549H4.20286V51.8116C4.20286 51.4908 4.52825 51.1701 4.85366 51.1701H6.48069V27.435C6.31799 26.152 6.64337 23.7464 9.40932 23.1049H18.1953C19.6596 22.7842 54.1527 14.4448 57.8948 14.4448C60.1727 14.4448 95.1538 22.1427 99.0587 23.1049H105.567C106.543 23.2653 108.333 24.2275 108.658 26.6331V26.7935V51.1701H109.96C110.285 51.1701 110.611 51.4908 110.611 51.8116V53.2549H111.424V51.3304C111.424 51.0097 111.75 50.689 112.075 50.689C112.4 50.689 112.726 51.0097 112.726 51.3304V56.4624C112.726 56.7831 112.4 57.1039 112.075 57.1039C111.75 57.1039 111.424 56.7831 111.424 56.4624V54.5379H110.611V55.9812C110.611 56.302 110.285 56.6228 109.96 56.6228H104.428C104.753 57.4246 104.916 58.0661 104.916 59.0283C104.916 61.5943 103.614 63.6791 101.662 64.9621H112.4C112.726 64.9621 113.051 65.2828 113.051 65.6036C113.051 65.9243 112.726 66.2451 112.4 66.2451H11.8499C11.5245 66.2451 11.1991 65.9243 11.1991 65.6036C11.1991 65.2828 11.5245 64.9621 11.8499 64.9621H13.965C12.0126 63.6791 10.711 61.4339 10.711 59.0283C10.711 58.2265 10.8737 57.4246 11.1991 56.6228H4.69095C4.36554 56.6228 4.04015 56.302 4.04015 55.9812V54.5379H2.2504V56.4624C2.2504 56.7831 1.925 57.1039 1.5996 57.1039C1.27419 57.1039 0.948799 56.7831 0.948799 56.4624V51.3304C1.1115 51.0097 1.2742 50.689 1.76231 50.689ZM12.1753 59.0283C12.1753 62.2358 14.9412 64.9621 18.1953 64.9621C19.6596 64.9621 20.9613 64.481 21.9375 63.6791C21.7748 63.5187 21.612 63.3583 21.4493 63.198C20.4731 63.8395 19.4969 64.3206 18.1953 64.3206C15.2666 64.3206 12.8261 61.915 12.8261 59.0283C12.8261 58.2265 12.9888 57.4246 13.4769 56.6228H12.6634C12.338 57.4246 12.1753 58.2265 12.1753 59.0283ZM102.964 56.7831H102.15C102.475 57.4246 102.801 58.2264 102.801 59.1887C102.801 62.0754 100.36 64.481 97.4317 64.481C96.2927 64.481 95.3165 64.1602 94.3403 63.5187C94.1776 63.6791 94.0149 63.8395 93.8522 63.9998C94.8284 64.8017 96.13 65.1225 97.4317 65.1225C100.686 65.1225 103.452 62.3961 103.452 59.1887C103.452 58.2264 103.289 57.4246 102.964 56.7831ZM14.2904 59.0283C14.2904 61.2735 16.0801 63.0376 18.358 63.0376C19.3342 63.0376 20.1477 62.7169 20.9612 62.0754C20.9612 61.915 20.9612 61.915 20.7985 61.7546C20.6358 61.2735 20.3104 61.1132 19.1715 61.1132C19.0088 61.1132 18.6834 61.1132 18.5207 61.1132C18.5207 61.1132 18.5207 61.1132 18.358 61.1132C17.2191 61.1132 16.4056 60.1509 16.4056 59.1887C16.4056 58.0661 17.3818 57.2642 18.358 57.2642C18.6834 57.2642 19.0088 57.4246 19.3342 57.5849H21.9375C21.7748 57.4246 21.612 57.1038 21.612 56.9435H15.2666C14.6158 57.4246 14.2904 58.2265 14.2904 59.0283ZM24.378 63.0376H26.0051C27.6321 63.0376 28.1202 62.3961 28.4456 61.2735C28.771 60.3113 29.4218 59.9906 30.0726 59.8302C29.9099 59.5095 29.9099 59.3491 29.9099 59.0283C29.9099 58.868 29.9099 58.8679 29.9099 58.7076H19.985C19.985 58.8679 19.985 58.868 19.985 59.0283C19.985 59.3491 19.985 59.5095 19.8223 59.8302C20.6358 59.9906 21.2866 60.3113 21.612 61.2735C22.4256 62.5565 22.9137 63.0376 24.378 63.0376ZM91.5743 63.0376C93.2014 63.0376 93.6895 62.3961 94.0149 61.2735C94.3403 60.3113 94.9911 59.9906 95.6419 59.8302C95.4792 59.5095 95.4792 59.3491 95.4792 59.0283C95.4792 58.868 95.4792 58.8679 95.4792 58.7076H85.5544C85.5544 58.8679 85.5544 58.868 85.5544 59.0283C85.5544 59.3491 85.5543 59.5095 85.3916 59.8302C86.2052 59.9906 86.856 60.3113 87.1814 61.2735C87.5068 62.3961 87.9949 63.0376 89.6219 63.0376H91.5743ZM100.686 56.7831H100.198C100.686 57.4246 101.011 58.0661 101.011 59.0283C101.011 59.3491 100.686 59.6698 100.36 59.6698C100.035 59.6698 99.7095 59.3491 99.7095 59.0283C99.7095 57.9057 98.7333 57.1039 97.7571 57.1039C97.5944 57.1039 97.4316 57.1038 97.2689 56.9435H94.3403C94.1776 57.1038 94.0149 57.4246 94.0149 57.5849H96.6181C96.9435 57.4246 97.269 57.2642 97.5944 57.2642C98.7333 57.2642 99.5468 58.2264 99.5468 59.1887C99.5468 59.349 99.5468 59.5094 99.5468 59.5094C99.5468 59.8302 99.3841 59.9905 99.2214 60.1509C99.2214 60.1509 99.2214 60.1509 99.2214 60.3113C99.0587 60.4717 99.0587 60.4717 98.896 60.6321C98.5706 60.9528 98.2451 61.1132 97.9197 61.1132C97.757 61.1132 97.4316 61.1132 97.2689 61.1132C96.13 61.1132 95.8046 61.2735 95.6419 61.7546C95.6419 61.915 95.4792 62.0754 95.4792 62.2358C96.13 62.7169 96.9436 63.0376 97.7571 63.0376C100.035 63.0376 101.825 61.2735 101.825 59.0283C101.499 58.2265 101.174 57.4246 100.686 56.7831ZM96.7808 59.0283C96.7808 59.3491 97.1062 59.6698 97.4317 59.6698C97.7571 59.6698 98.0825 59.3491 98.0825 59.0283C98.0825 58.7076 97.7571 58.3868 97.4317 58.3868C97.1062 58.3868 96.7808 58.7076 96.7808 59.0283ZM79.697 59.0283C79.697 61.2735 81.4868 63.0376 83.7646 63.0376C84.7408 63.0376 85.5544 62.7169 86.3679 62.0754C86.3679 61.915 86.3679 61.915 86.2052 61.7546C86.0425 61.2735 85.717 61.1132 84.5781 61.1132C84.4154 61.1132 84.09 61.1132 83.9273 61.1132H83.7646C82.6257 61.1132 81.8122 60.1509 81.8122 59.1887C81.8122 58.0661 82.7884 57.2642 83.7646 57.2642C84.09 57.2642 84.4154 57.4246 84.7408 57.5849H87.344C87.1813 57.4246 87.0187 57.1038 87.0187 56.9435H80.6733C80.0224 57.4246 79.697 58.2265 79.697 59.0283ZM83.7646 58.3868C83.4392 58.3868 83.1138 58.7076 83.1138 59.0283C83.1138 59.3491 83.4392 59.6698 83.7646 59.6698C84.09 59.6698 84.4154 59.3491 84.4154 59.0283C84.4154 58.7076 84.09 58.3868 83.7646 58.3868ZM88.8084 57.4246H89.4592C89.4592 57.2642 89.2965 56.9435 89.2965 56.7831H88.483C88.483 56.9435 88.6457 57.1039 88.8084 57.4246ZM91.737 57.4246H92.3878C92.3878 57.2642 92.5506 56.9435 92.7133 56.7831H91.8998C91.8998 56.9435 91.737 57.1039 91.737 57.4246ZM86.856 63.198C85.8797 63.8395 84.9035 64.3206 83.6019 64.3206C80.6732 64.3206 78.2327 61.915 78.2327 59.0283C78.2327 58.2265 78.3954 57.4246 78.8835 56.6228H78.07C77.7446 57.2642 77.5819 58.0661 77.5819 59.0283C77.5819 62.2358 80.3478 64.9621 83.6019 64.9621C85.0662 64.9621 86.3678 64.481 87.344 63.6791C87.1813 63.5187 87.0187 63.3583 86.856 63.198ZM18.1953 58.3868C17.8699 58.3868 17.5445 58.7076 17.5445 59.0283C17.5445 59.3491 17.8699 59.6698 18.1953 59.6698C18.5207 59.6698 18.8461 59.3491 18.8461 59.0283C18.8461 58.7076 18.6834 58.3868 18.1953 58.3868ZM35.6045 58.868C35.6045 59.1887 35.2791 59.5094 34.9537 59.5094C34.6283 59.5094 34.3029 59.1887 34.3029 58.868C34.3029 57.7453 33.3267 56.9435 32.3505 56.9435C32.1878 56.9435 32.0251 56.9435 31.8624 56.7831H28.9337C28.771 56.9435 28.6083 57.2642 28.6083 57.4246H31.2115C31.5369 57.2642 31.8623 57.1039 32.1877 57.1039C33.3267 57.1039 34.1402 58.0661 34.1402 59.0283C34.1402 59.1887 34.1402 59.3491 34.1402 59.3491C34.1402 59.6698 33.9775 59.8302 33.8148 59.9905C33.8148 59.9905 33.8148 59.9905 33.8148 60.1509C33.6521 60.3113 33.6521 60.3113 33.4894 60.4717C33.164 60.7924 32.8386 60.9528 32.5132 60.9528C32.3505 60.9528 32.0251 60.9528 31.8624 60.9528C30.7234 60.9528 30.398 61.1131 30.2353 61.5943C30.2353 61.7546 30.0726 61.915 30.0726 62.0754C30.7234 62.5565 31.5369 62.8773 32.3505 62.8773C34.6283 62.8773 36.2553 61.1132 36.2553 58.868C36.2553 57.9057 35.9299 57.1039 35.4418 56.4624H34.9537C35.2791 57.2642 35.6045 58.0661 35.6045 58.868ZM23.7272 56.7831H22.9137C23.0764 56.9435 23.0764 57.2642 23.2391 57.4246H23.8899C23.8899 57.1039 23.8899 56.9435 23.7272 56.7831ZM26.3304 57.4246H26.9813C26.9813 57.2642 27.144 56.9435 27.3067 56.7831H26.4931C26.4931 56.9435 26.3304 57.1039 26.3304 57.4246ZM31.3742 59.0283C31.3742 59.3491 31.6996 59.6698 32.025 59.6698C32.3504 59.6698 32.6759 59.3491 32.6759 59.0283C32.6759 58.7076 32.3504 58.3868 32.025 58.3868C31.6996 58.3868 31.3742 58.7076 31.3742 59.0283ZM38.0451 59.0283C38.0451 58.2265 37.8824 57.4246 37.557 56.6228H36.7435C37.0689 57.2642 37.3943 58.0661 37.3943 59.0283C37.3943 61.915 34.9537 64.3206 32.025 64.3206C30.8861 64.3206 29.9099 63.9998 28.9337 63.3584C28.771 63.5187 28.6083 63.6791 28.4456 63.8395C29.4218 64.6414 30.7234 64.9621 32.025 64.9621C35.4418 64.9621 38.0451 62.3962 38.0451 59.0283ZM91.5743 64.481H89.9473C89.6219 64.481 89.1338 64.481 88.8084 64.3206C88.483 64.6413 88.1576 64.8017 87.8322 65.1225H93.2014C92.876 64.9621 92.5506 64.6414 92.3878 64.481C92.0624 64.3206 91.8997 64.481 91.5743 64.481ZM76.2803 59.0283C76.2803 58.2265 76.4429 57.4246 76.7684 56.6228H39.0213C39.3467 57.4246 39.5094 58.0661 39.5094 59.0283C39.5094 61.5943 38.2078 63.6791 36.2553 64.9621H79.5343C77.5819 63.6791 76.2803 61.5943 76.2803 59.0283ZM26.9813 64.3206C26.6559 64.3206 26.4932 64.3206 26.1678 64.3206H24.5407C24.2153 64.3206 23.7272 64.3206 23.4018 64.1602C23.0764 64.481 22.751 64.6413 22.4256 64.9621H27.7948C27.4694 64.8017 27.3067 64.6413 26.9813 64.3206ZM109.309 55.3397V52.4531H5.50446V55.3397H109.309ZM107.519 27.435C107.519 24.869 105.73 24.5483 105.567 24.3879H9.57204C8.10771 24.7087 7.7823 25.9916 7.7823 26.7935H96.6181C96.9435 26.7935 97.2689 27.1142 97.2689 27.435C97.2689 27.7557 96.9435 28.0765 96.6181 28.0765H7.7823V51.1701H25.6796V30.1613C25.6796 29.8406 26.005 29.5198 26.3304 29.5198C26.6558 29.5198 26.9813 29.8406 26.9813 30.1613V51.1701H45.6921V30.1613C45.6921 29.8406 46.0175 29.5198 46.3429 29.5198C46.6683 29.5198 46.9937 29.8406 46.9937 30.1613V51.1701H65.7046V30.1613C65.7046 29.8406 66.03 29.5198 66.3554 29.5198C66.6808 29.5198 67.0062 29.8406 67.0062 30.1613V51.1701H86.0424V30.1613C86.0424 29.8406 86.3678 29.5198 86.6932 29.5198C87.0187 29.5198 87.344 29.8406 87.344 30.1613V51.1701H107.357V27.435H107.519ZM92.876 23.1049C77.9073 19.7371 59.1965 15.7278 57.8948 15.7278C55.4543 15.7278 36.9061 19.8975 24.0526 23.1049H92.876Z" fill="#151515"/>
<path d="M62.7759 33.0483H51.0612C50.7358 33.0483 50.4104 32.7276 50.4104 32.4069C50.4104 32.0861 50.7358 31.7654 51.0612 31.7654H62.7759C63.1013 31.7654 63.4267 32.0861 63.4267 32.4069C63.4267 32.7276 63.1013 33.0483 62.7759 33.0483Z" fill="#151515"/>
<path d="M62.7759 38.0196H51.0612C50.7358 38.0196 50.4104 37.6988 50.4104 37.3781C50.4104 37.0574 50.7358 36.7366 51.0612 36.7366H62.7759C63.1013 36.7366 63.4267 37.0574 63.4267 37.3781C63.4267 37.6988 63.1013 38.0196 62.7759 38.0196Z" fill="#151515"/>
<path d="M62.7759 42.9913H51.0612C50.7358 42.9913 50.4104 42.6705 50.4104 42.3497C50.4104 42.029 50.7358 41.7083 51.0612 41.7083H62.7759C63.1013 41.7083 63.4267 42.029 63.4267 42.3497C63.4267 42.6705 63.1013 42.9913 62.7759 42.9913Z" fill="#151515"/>
<path d="M62.7759 47.9629H51.0612C50.7358 47.9629 50.4104 47.6422 50.4104 47.3214C50.4104 47.0007 50.7358 46.6799 51.0612 46.6799H62.7759C63.1013 46.6799 63.4267 47.0007 63.4267 47.3214C63.4267 47.6422 63.1013 47.9629 62.7759 47.9629Z" fill="#151515"/>
<path d="M42.6008 33.0483H30.8862C30.5608 33.0483 30.2354 32.7276 30.2354 32.4069C30.2354 32.0861 30.5608 31.7654 30.8862 31.7654H42.6008C42.9262 31.7654 43.2516 32.0861 43.2516 32.4069C43.2516 32.7276 42.9262 33.0483 42.6008 33.0483Z" fill="#151515"/>
<path d="M42.6008 38.0196H30.8862C30.5608 38.0196 30.2354 37.6988 30.2354 37.3781C30.2354 37.0574 30.5608 36.7366 30.8862 36.7366H42.6008C42.9262 36.7366 43.2516 37.0574 43.2516 37.3781C43.2516 37.6988 42.9262 38.0196 42.6008 38.0196Z" fill="#151515"/>
<path d="M42.6008 42.9913H30.8862C30.5608 42.9913 30.2354 42.6705 30.2354 42.3497C30.2354 42.029 30.5608 41.7083 30.8862 41.7083H42.6008C42.9262 41.7083 43.2516 42.029 43.2516 42.3497C43.2516 42.6705 42.9262 42.9913 42.6008 42.9913Z" fill="#151515"/>
<path d="M42.6008 47.9629H30.8862C30.5608 47.9629 30.2354 47.6422 30.2354 47.3214C30.2354 47.0007 30.5608 46.6799 30.8862 46.6799H42.6008C42.9262 46.6799 43.2516 47.0007 43.2516 47.3214C43.2516 47.6422 42.9262 47.9629 42.6008 47.9629Z" fill="#151515"/>
<path d="M22.2628 33.0483H10.5482C10.2228 33.0483 9.89737 32.7276 9.89737 32.4069C9.89737 32.0861 10.2228 31.7654 10.5482 31.7654H22.2628C22.5882 31.7654 22.9136 32.0861 22.9136 32.4069C23.0763 32.7276 22.7509 33.0483 22.2628 33.0483Z" fill="#151515"/>
<path d="M22.2628 38.0196H10.5482C10.2228 38.0196 9.89737 37.6988 9.89737 37.3781C9.89737 37.0574 10.2228 36.7366 10.5482 36.7366H22.2628C22.5882 36.7366 22.9136 37.0574 22.9136 37.3781C23.0763 37.6988 22.7509 38.0196 22.2628 38.0196Z" fill="#151515"/>
<path d="M22.2628 42.9913H10.5482C10.2228 42.9913 9.89737 42.6705 9.89737 42.3497C9.89737 42.029 10.2228 41.7083 10.5482 41.7083H22.2628C22.5882 41.7083 22.9136 42.029 22.9136 42.3497C23.0763 42.6705 22.7509 42.9913 22.2628 42.9913Z" fill="#151515"/>
<path d="M22.2628 47.9629H10.5482C10.2228 47.9629 9.89737 47.6422 9.89737 47.3214C9.89737 47.0007 10.2228 46.6799 10.5482 46.6799H22.2628C22.5882 46.6799 22.9136 47.0007 22.9136 47.3214C23.0763 47.6422 22.7509 47.9629 22.2628 47.9629Z" fill="#151515"/>
<path d="M82.9509 33.0483H71.2362C70.9108 33.0483 70.5854 32.7276 70.5854 32.4069C70.5854 32.0861 70.9108 31.7654 71.2362 31.7654H82.9509C83.2763 31.7654 83.6017 32.0861 83.6017 32.4069C83.6017 32.7276 83.2763 33.0483 82.9509 33.0483Z" fill="#151515"/>
<path d="M82.9509 38.0196H71.2362C70.9108 38.0196 70.5854 37.6988 70.5854 37.3781C70.5854 37.0574 70.9108 36.7366 71.2362 36.7366H82.9509C83.2763 36.7366 83.6017 37.0574 83.6017 37.3781C83.6017 37.6988 83.2763 38.0196 82.9509 38.0196Z" fill="#151515"/>
<path d="M82.9509 42.9913H71.2362C70.9108 42.9913 70.5854 42.6705 70.5854 42.3497C70.5854 42.029 70.9108 41.7083 71.2362 41.7083H82.9509C83.2763 41.7083 83.6017 42.029 83.6017 42.3497C83.6017 42.6705 83.2763 42.9913 82.9509 42.9913Z" fill="#151515"/>
<path d="M82.9509 47.9629H71.2362C70.9108 47.9629 70.5854 47.6422 70.5854 47.3214C70.5854 47.0007 70.9108 46.6799 71.2362 46.6799H82.9509C83.2763 46.6799 83.6017 47.0007 83.6017 47.3214C83.6017 47.6422 83.2763 47.9629 82.9509 47.9629Z" fill="#151515"/>
<path d="M103.777 32.4069C103.777 32.7276 103.452 33.0483 103.126 33.0483H91.4116C91.0862 33.0483 90.7608 32.7276 90.7608 32.4069C90.7608 32.0861 91.0862 31.7654 91.4116 31.7654H103.126C103.452 31.7654 103.777 32.0861 103.777 32.4069Z" fill="#151515"/>
<path d="M91.4116 36.7366H103.126C103.452 36.7366 103.777 37.0574 103.777 37.3781C103.777 37.6988 103.452 38.0196 103.126 38.0196H91.4116C91.0862 38.0196 90.7608 37.6988 90.7608 37.3781C90.7608 37.0574 90.9235 36.7366 91.4116 36.7366Z" fill="#151515"/>
<path d="M91.4116 41.7083H103.126C103.452 41.7083 103.777 42.029 103.777 42.3497C103.777 42.6705 103.452 42.9913 103.126 42.9913H91.4116C91.0862 42.9913 90.7608 42.6705 90.7608 42.3497C90.7608 41.8686 90.9235 41.7083 91.4116 41.7083Z" fill="#151515"/>
<path d="M91.4116 46.5193H103.126C103.452 46.5193 103.777 46.84 103.777 47.1608C103.777 47.4815 103.452 47.8023 103.126 47.8023H91.4116C91.0862 47.8023 90.7608 47.4815 90.7608 47.1608C90.7608 46.84 90.9235 46.5193 91.4116 46.5193Z" fill="#151515"/>
</svg>
