<svg width="82" height="82" viewBox="0 0 82 82" fill="none" xmlns="http://www.w3.org/2000/svg">
<path fill-rule="evenodd" clip-rule="evenodd" d="M41 1.81299C63.1276 1.81299 81.1876 19.6143 81.1876 41.425C81.1876 63.2356 63.1276 81.0369 41 81.0369C18.8724 81.0369 0.812378 63.2356 0.812378 41.425C0.812378 19.6143 18.7097 1.81299 41 1.81299Z" fill="#F5BE28"/>
<path d="M69.5226 70.9335H12.2511C11.763 70.9335 11.4376 70.6127 11.4376 70.1316V41.9061C11.4376 41.425 11.763 41.1042 12.2511 41.1042H69.5226C70.0107 41.1042 70.3361 41.425 70.3361 41.9061V70.1316C70.1734 70.6127 69.848 70.9335 69.5226 70.9335ZM12.902 69.4901H68.7091V42.708H12.902V69.4901Z" fill="#151515"/>
<path d="M43.3273 65.8017H38.1208C37.6327 65.8017 37.3073 65.481 37.3073 64.9999V47.0382C37.3073 46.5571 37.6327 46.2363 38.1208 46.2363H43.3273C43.8154 46.2363 44.1408 46.5571 44.1408 47.0382V64.9999C44.1408 65.481 43.8154 65.8017 43.3273 65.8017ZM38.9343 64.3584H42.6765V47.8401H38.9343V64.3584Z" fill="#151515"/>
<path d="M53.903 65.8017H48.6965C48.2084 65.8017 47.883 65.481 47.883 64.9999V47.0382C47.883 46.5571 48.2084 46.2363 48.6965 46.2363H53.903C54.3911 46.2363 54.7165 46.5571 54.7165 47.0382V64.9999C54.5538 65.481 54.2284 65.8017 53.903 65.8017ZM49.3473 64.3584H53.0895V47.8401H49.3473V64.3584Z" fill="#151515"/>
<path d="M32.9145 65.8017H27.708C27.2199 65.8017 26.8945 65.481 26.8945 64.9999V47.0382C26.8945 46.5571 27.2199 46.2363 27.708 46.2363H32.9145C33.4026 46.2363 33.7281 46.5571 33.7281 47.0382V64.9999C33.7281 65.481 33.4026 65.8017 32.9145 65.8017ZM28.5216 64.3584H32.2637V47.8401H28.5216V64.3584Z" fill="#151515"/>
<path d="M64.3157 65.8017H59.1092C58.6211 65.8017 58.2957 65.481 58.2957 64.9999V47.0382C58.2957 46.5571 58.6211 46.2363 59.1092 46.2363H64.3157C64.8038 46.2363 65.1292 46.5571 65.1292 47.0382V64.9999C64.9665 65.481 64.6411 65.8017 64.3157 65.8017ZM59.7601 64.3584H63.5022V47.8401H59.7601V64.3584Z" fill="#151515"/>
<path d="M22.5016 65.8017H17.2951C16.807 65.8017 16.4816 65.481 16.4816 64.9999V47.0382C16.4816 46.5571 16.807 46.2363 17.2951 46.2363H22.5016C22.9897 46.2363 23.3151 46.5571 23.3151 47.0382V64.9999C23.3151 65.481 22.9897 65.8017 22.5016 65.8017ZM18.1086 64.3584H21.8508V47.8401H18.1086V64.3584Z" fill="#151515"/>
<path d="M43.9781 24.1052C43.9781 23.6241 44.3035 23.3034 44.7916 23.3034C45.2797 23.3034 45.6051 23.6241 45.6051 24.1052C45.6051 25.3882 45.117 26.5108 44.3035 27.3127C43.49 28.1145 42.3511 28.5956 41.0495 28.5956C39.7478 28.5956 38.6089 28.1145 37.7954 27.3127C36.9819 26.5108 36.4938 25.3882 36.4938 24.1052C36.4938 22.8222 36.9819 21.6996 37.7954 20.8978C38.4462 20.2563 39.4224 19.7752 40.3986 19.6148V15.1244C40.3986 14.6433 40.724 14.3225 41.2122 14.3225C41.7003 14.3225 42.0257 14.6433 42.0257 15.1244V20.2563C42.0257 20.7374 41.7003 21.0581 41.2122 21.0581C40.3986 21.0581 39.5851 21.3789 38.9343 22.0204C38.2835 22.6619 37.9581 23.4637 37.9581 24.2656C37.9581 25.0675 38.2835 25.8693 38.9343 26.5108C39.5851 27.1523 40.2359 27.473 41.2122 27.473C42.0257 27.473 42.8392 27.1523 43.49 26.5108C43.6527 25.7089 43.9781 24.9071 43.9781 24.1052Z" fill="#151515"/>
<path d="M37.4703 14.1618H44.1412L47.7206 1.49242H34.0536L37.4703 14.1618ZM44.6293 15.7656H36.8195C36.4941 15.7656 36.1687 15.4448 36.1687 15.1241L32.2639 1.01131C32.1012 0.690561 32.4266 0.209445 32.752 0.0490723H32.9147H48.5342C49.0223 0.0490723 49.3477 0.369817 49.3477 0.850933C49.3477 1.01131 49.3477 1.01131 49.3477 1.17168L45.4428 15.2844C45.2801 15.4448 44.9547 15.7656 44.6293 15.7656Z" fill="#151515"/>
<path d="M41.5378 0.369953C41.8632 0.0492084 42.3513 0.0492084 42.514 0.369953C42.8395 0.690697 42.8395 1.17181 42.514 1.33219L36.0059 7.74708C35.6805 8.06782 35.1924 8.06782 35.0297 7.74708C34.7043 7.42633 34.7043 6.94522 35.0297 6.78484L41.5378 0.369953Z" fill="#151515"/>
<path d="M46.744 4.21883C47.0694 3.89809 47.5575 3.89809 47.7202 4.21883C48.0456 4.53957 48.0456 5.02069 47.7202 5.18106L37.3073 15.4449C36.9819 15.7656 36.4937 15.7656 36.331 15.4449C36.0056 15.1241 36.0056 14.643 36.331 14.4827L46.744 4.21883Z" fill="#151515"/>
<path d="M12.5763 42.5476C12.2509 42.708 11.7628 42.708 11.6001 42.2269C11.4374 41.9061 11.4374 41.425 11.9255 41.2646L36.6564 26.9915C37.958 26.1896 39.4223 25.8689 41.0494 25.8689C42.6764 25.8689 43.978 26.1896 45.4423 26.9915L70.1732 41.2646C70.4986 41.425 70.6613 41.9061 70.4986 42.2269C70.3359 42.5476 69.8478 42.708 69.5224 42.5476L44.7915 28.2745C43.6526 27.633 42.5137 27.3122 41.2121 27.3122C39.9104 27.3122 38.7715 27.633 37.6326 28.2745L12.5763 42.5476Z" fill="#151515"/>
</svg>
