<svg width="82" height="80" viewBox="0 0 82 80" fill="none" xmlns="http://www.w3.org/2000/svg">
<path fill-rule="evenodd" clip-rule="evenodd" d="M41 0.652588C63.1276 0.652588 81.1877 18.4539 81.1877 40.2645C81.1877 62.0752 63.1276 79.8765 41 79.8765C18.8724 79.8765 0.812378 62.0752 0.812378 40.2645C0.812378 18.4539 18.7097 0.652588 41 0.652588Z" fill="#F5BE28"/>
<path d="M51.0873 28.5572C51.0873 29.0384 50.7619 29.3591 50.2738 29.3591C49.7857 29.3591 49.4603 29.0384 49.4603 28.5572V5.78439H8.62181V65.7636H33.0273C33.5154 65.7636 33.8408 66.0844 33.8408 66.5655C33.8408 67.0466 33.5154 67.3673 33.0273 67.3673H7.8083C7.32019 67.3673 6.99478 67.0466 6.99478 66.5655V4.98253C6.99478 4.50141 7.32019 4.18066 7.8083 4.18066H50.2738C50.7619 4.18066 51.0873 4.50141 51.0873 4.98253V28.5572Z" fill="#151515"/>
<path d="M64.7545 60.6318C64.2664 60.6318 64.1037 60.1507 64.1037 59.83C64.1037 59.3489 64.5918 59.1885 64.9172 59.1885C69.4729 59.9903 74.6794 61.1129 74.6794 75.5464C74.6794 76.0276 74.354 76.3483 73.8659 76.3483C73.3778 76.3483 73.0524 76.0276 73.0524 75.5464C73.3778 62.2356 68.8221 61.4337 64.7545 60.6318Z" fill="#151515"/>
<path d="M46.2065 59.1885C46.6946 59.1885 47.02 59.3489 47.02 59.83C47.02 60.3111 46.8573 60.6318 46.3692 60.6318C42.3016 61.4337 37.7459 62.2356 37.7459 75.5464C37.7459 76.0276 37.4205 76.3483 36.9324 76.3483C36.4443 76.3483 36.1189 76.0276 36.1189 75.5464C36.2816 60.9526 41.4881 59.9903 46.2065 59.1885Z" fill="#151515"/>
<path d="M62.8022 45.5567C62.8022 45.0756 63.1276 44.7549 63.6157 44.7549C64.1039 44.7549 64.4293 45.0756 64.4293 45.5567V48.7642C64.4293 51.8113 63.6157 54.5376 62.1514 56.4621C60.6871 58.2262 58.572 59.3488 55.806 59.3488C53.0401 59.3488 51.0876 58.2262 49.6233 56.6224C47.9963 54.698 47.1827 52.132 47.1827 49.2453V45.5567C47.1827 45.0756 47.5081 44.7549 47.9963 44.7549C48.4844 44.7549 48.8098 45.0756 48.8098 45.5567V49.2453C48.8098 51.8113 49.6233 54.0565 50.9249 55.6602C52.0638 57.1035 53.8536 57.9054 55.9687 57.9054C58.2465 57.9054 60.0363 56.9432 61.1752 55.4998C62.4768 53.8961 63.1276 51.4905 63.1276 48.7642V45.5567H62.8022Z" fill="#151515"/>
<path d="M57.433 58.3866C57.433 57.9055 57.9211 57.7451 58.2465 57.7451C58.7346 57.7451 58.8973 58.2262 58.8973 58.547L58.5719 60.7922C58.4092 61.4337 58.0838 61.9148 57.7584 62.3959C57.433 62.7167 57.1076 62.877 56.7821 63.0374L58.8973 67.3675C59.06 67.6882 58.8973 68.1693 58.5719 68.3297C58.2465 68.4901 57.7584 68.3297 57.5957 68.0089L54.9924 62.877C54.9924 62.7167 54.8297 62.7167 54.8297 62.5563C54.8297 62.0752 55.1551 61.7544 55.4805 61.7544H55.9686C56.294 61.7544 56.4567 61.5941 56.7821 61.4337C56.9449 61.2733 57.1076 60.9526 57.1076 60.7922L57.433 58.3866Z" fill="#151515"/>
<path d="M52.2266 58.7071C52.2266 58.226 52.3893 57.9053 52.8774 57.9053C53.3655 57.9053 53.6909 58.0656 53.6909 58.5468L54.0163 60.792C54.0163 61.1127 54.179 61.2731 54.3417 61.4335C54.5044 61.5938 54.8298 61.7542 55.1552 61.7542H55.6433C56.1314 61.7542 56.2942 62.0749 56.2942 62.5561C56.2942 62.7164 56.2941 62.7164 56.1314 62.8768L53.5282 68.0087C53.3655 68.3295 52.8774 68.4898 52.552 68.3295C52.2266 68.1691 52.0639 67.688 52.2266 67.3672L54.3417 63.0372C54.0163 62.8768 53.6909 62.7164 53.3655 62.3957C52.8774 61.9146 52.552 61.4335 52.552 60.792L52.2266 58.7071Z" fill="#151515"/>
<path d="M55.9684 62.8769C56.2938 63.0373 56.4565 63.5184 56.2938 63.8392V63.9995C56.1311 64.3203 55.643 64.4806 55.3175 64.3203C55.1548 64.3203 55.1548 64.1599 54.9921 63.9995C54.8294 63.6788 54.8294 63.1977 55.3175 63.0373C55.4803 62.5562 55.8057 62.7166 55.9684 62.8769Z" fill="#151515"/>
<path d="M65.0801 59.1883C65.5682 59.1883 65.7309 59.6694 65.7309 59.9901C65.7309 60.4712 65.2428 60.6316 64.9174 60.6316L58.4093 59.3486C57.9212 59.3486 57.7585 58.8675 57.7585 58.5468C57.7585 58.0656 58.2466 57.9053 58.572 57.9053L65.0801 59.1883Z" fill="#151515"/>
<path d="M46.3692 60.6316C45.8811 60.6316 45.5557 60.4712 45.5557 59.9901C45.5557 59.509 45.7184 59.1883 46.2065 59.1883L52.8774 57.9053C53.3655 57.9053 53.6909 58.0656 53.6909 58.5468C53.6909 59.0279 53.5282 59.3486 53.0401 59.3486L46.3692 60.6316Z" fill="#151515"/>
<path d="M48.3215 60.1506C48.1588 59.8299 48.3215 59.3488 48.6469 59.1884C48.9723 59.028 49.4604 59.1884 49.6231 59.5091L55.6431 73.6219L61.6631 59.5091C61.8258 59.1884 62.3139 59.028 62.6393 59.1884C62.9647 59.3488 63.1274 59.8299 62.9647 60.1506L56.2939 75.7067C56.2939 75.8671 56.1312 76.0275 55.8058 76.1879C55.4804 76.3482 54.9923 76.1879 54.8296 75.8671L48.3215 60.1506Z" fill="#151515"/>
<path d="M69.6354 67.6879C69.6354 68.169 69.31 68.4898 68.8219 68.4898C68.3338 68.4898 68.0084 68.169 68.0084 67.6879V61.1127C68.0084 60.6315 68.3338 60.3108 68.8219 60.3108C69.31 60.3108 69.6354 60.6315 69.6354 61.1127V67.6879Z" fill="#151515"/>
<path d="M43.1152 67.6879C43.1152 68.169 42.7898 68.4898 42.3016 68.4898C41.8135 68.4898 41.4881 68.169 41.4881 67.6879V61.1127C41.4881 60.6315 41.8135 60.3108 42.3016 60.3108C42.7898 60.3108 43.1152 60.6315 43.1152 61.1127V67.6879Z" fill="#151515"/>
<path d="M55.6431 42.3494H47.3453L47.9961 44.4342C49.2977 44.7549 53.2026 46.0379 55.6431 46.0379C58.0837 46.0379 62.1513 44.7549 63.4529 44.2738L63.941 42.189L55.6431 42.3494ZM55.4804 40.906H55.6431H64.7545H64.9172C65.2426 41.0664 65.568 41.3871 65.4053 41.7079L64.5918 45.0757C64.5918 45.3964 64.4291 45.5568 64.1037 45.7172C64.1037 45.7172 58.4091 47.6416 55.3177 47.6416C52.2264 47.6416 46.8572 45.8775 46.8572 45.8775C46.6945 45.8775 46.3691 45.5568 46.3691 45.3964L45.3929 42.0286C45.3929 41.8682 45.3929 41.8682 45.3929 41.7079C45.3929 41.2268 45.7183 40.906 46.2064 40.906H55.4804Z" fill="#151515"/>
<path d="M47.0197 41.2269C47.1824 41.5476 47.0197 42.0287 46.6943 42.1891C46.3689 42.3495 45.8808 42.1891 45.7181 41.8683L42.9522 36.7364C42.7895 36.4157 42.9522 35.9346 43.2776 35.7742C43.2776 35.7742 51.4127 31.7649 55.4803 31.7649C59.5479 31.7649 67.683 35.7742 67.683 35.7742C68.0084 35.9346 68.1711 36.4157 68.0084 36.7364L65.4052 42.0287C65.2425 42.3495 64.7544 42.5098 64.429 42.3495C64.1036 42.1891 63.9409 41.708 64.1036 41.3872L66.3814 36.8968C64.429 35.9346 58.5717 33.3686 55.4803 33.3686C52.3889 33.3686 46.5316 35.9346 44.5792 36.8968L47.0197 41.2269Z" fill="#151515"/>
<path d="M57.4329 35.774C57.921 36.2551 58.2464 36.8966 58.2464 37.6985C58.2464 38.34 57.921 39.1418 57.4329 39.623C56.9448 40.1041 56.2939 40.4248 55.4804 40.4248C54.6669 40.4248 54.0161 40.1041 53.528 39.623C53.0399 39.1418 52.7145 38.5004 52.7145 37.6985C52.7145 36.8966 53.0399 36.2551 53.528 35.774C54.0161 35.2929 54.6669 34.9722 55.4804 34.9722C56.2939 34.9722 56.9448 35.2929 57.4329 35.774ZM56.7821 37.6985C56.7821 37.3778 56.6193 37.057 56.4566 36.8966C56.2939 36.7363 55.9685 36.5759 55.6431 36.5759C55.3177 36.5759 54.9923 36.7363 54.8296 36.8966C54.6669 37.057 54.5042 37.3778 54.5042 37.6985C54.5042 38.0192 54.6669 38.34 54.8296 38.5004C54.9923 38.6607 55.3177 38.8211 55.6431 38.8211C55.9685 38.8211 56.2939 38.6607 56.4566 38.5004C56.6193 38.34 56.7821 38.0192 56.7821 37.6985Z" fill="#151515"/>
<path d="M25.055 60.6319H14.4793C13.9912 60.6319 13.6658 60.3112 13.6658 59.8301V49.4059C13.6658 48.9247 13.9912 48.604 14.4793 48.604H25.055C25.5431 48.604 25.8685 48.9247 25.8685 49.4059V59.8301C25.8685 60.3112 25.5431 60.6319 25.055 60.6319ZM15.2928 59.1886H24.4042V50.2077H15.2928V59.1886Z" fill="#151515"/>
<path d="M30.4242 58.0659C29.9361 58.0659 29.6107 57.7451 29.6107 57.264C29.6107 56.7829 29.9361 56.4622 30.4242 56.4622H37.0951C37.5832 56.4622 37.9086 56.7829 37.9086 57.264C37.9086 57.7451 37.5832 58.0659 37.0951 58.0659H30.4242Z" fill="#151515"/>
<path d="M30.4242 52.7734C29.9361 52.7734 29.6107 52.4527 29.6107 51.9715C29.6107 51.4904 29.9361 51.1697 30.4242 51.1697H40.9999C41.488 51.1697 41.8134 51.4904 41.8134 51.9715C41.8134 52.4527 41.488 52.7734 40.9999 52.7734H30.4242Z" fill="#151515"/>
<path d="M18.3842 30.3215C18.8723 30.3215 19.1977 30.6423 19.1977 31.1234C19.1977 31.6045 18.8723 31.9253 18.3842 31.9253H15.1301V40.9061H24.2415V38.9816C24.2415 38.5005 24.5669 38.1798 25.055 38.1798C25.5431 38.1798 25.8685 38.5005 25.8685 38.9816V41.5476C25.8685 42.0287 25.5431 42.3495 25.055 42.3495H14.4793C13.9912 42.3495 13.6658 42.0287 13.6658 41.5476V31.1234C13.6658 30.6423 13.9912 30.3215 14.4793 30.3215H18.3842Z" fill="#151515"/>
<path d="M30.4242 39.7834C29.9361 39.7834 29.6107 39.4627 29.6107 38.9815C29.6107 38.5004 29.9361 38.1797 30.4242 38.1797H37.0951C37.5832 38.1797 37.9086 38.5004 37.9086 38.9815C37.9086 39.4627 37.5832 39.7834 37.0951 39.7834H30.4242Z" fill="#151515"/>
<path d="M30.4242 34.4912C29.9361 34.4912 29.6107 34.1704 29.6107 33.6893C29.6107 33.2082 29.9361 32.8875 30.4242 32.8875H38.3967C38.8848 32.8875 39.2102 33.2082 39.2102 33.6893C39.2102 34.1704 38.8848 34.4912 38.3967 34.4912H30.4242Z" fill="#151515"/>
<path d="M18.3842 12.0388C18.8723 12.0388 19.1977 12.3596 19.1977 12.8407C19.1977 13.3218 18.8723 13.6425 18.3842 13.6425H15.1301V22.6234H24.2415V20.6989C24.2415 20.2178 24.5669 19.8971 25.055 19.8971C25.5431 19.8971 25.8685 20.2178 25.8685 20.6989V23.2649C25.8685 23.746 25.5431 24.0667 25.055 24.0667H14.4793C13.9912 24.0667 13.6658 23.746 13.6658 23.2649V12.8407C13.6658 12.3596 13.9912 12.0388 14.4793 12.0388H18.3842Z" fill="#151515"/>
<path d="M30.4242 21.5009C29.9361 21.5009 29.6107 21.1802 29.6107 20.6991C29.6107 20.218 29.9361 19.8972 30.4242 19.8972H43.6032C44.0913 19.8972 44.4167 20.218 44.4167 20.6991C44.4167 21.1802 44.0913 21.5009 43.6032 21.5009H30.4242Z" fill="#151515"/>
<path d="M30.4242 16.2087C29.9361 16.2087 29.6107 15.888 29.6107 15.4068C29.6107 14.9257 29.9361 14.605 30.4242 14.605H43.6032C44.0913 14.605 44.4167 14.9257 44.4167 15.4068C44.4167 15.888 44.0913 16.2087 43.6032 16.2087H30.4242Z" fill="#151515"/>
<path d="M17.896 17.3313C17.5706 17.0105 17.5706 16.5294 17.896 16.2087C18.2214 15.8879 18.7095 15.8879 19.0349 16.2087L21.15 18.2935L24.5668 13.8031C24.8922 13.4823 25.2176 13.4823 25.543 13.6427C25.8684 13.9634 25.8684 14.2842 25.7057 14.6049L21.8008 19.7368C21.8008 19.7368 21.8008 19.8972 21.6381 19.8972C21.3127 20.218 20.8246 20.218 20.4992 19.8972L17.896 17.3313Z" fill="#151515"/>
<path d="M17.896 35.6137C17.5706 35.293 17.5706 34.8119 17.896 34.4911C18.2214 34.1704 18.7095 34.1704 19.0349 34.4911L21.15 36.576L24.5668 32.0855C24.8922 31.7648 25.2176 31.7648 25.543 31.9252C25.8684 32.2459 25.8684 32.5667 25.7057 32.8874L21.8008 38.0193C21.8008 38.0193 21.8008 38.1797 21.6381 38.1797C21.3127 38.5004 20.8246 38.5004 20.4992 38.1797L17.896 35.6137Z" fill="#151515"/>
</svg>
