<svg width="82" height="80" viewBox="0 0 82 80" fill="none" xmlns="http://www.w3.org/2000/svg">
<path fill-rule="evenodd" clip-rule="evenodd" d="M41 0.652588C63.1276 0.652588 81.1877 18.4539 81.1877 40.2645C81.1877 62.0752 63.1276 79.8765 41 79.8765C18.8724 79.8765 0.812378 62.0752 0.812378 40.2645C0.812378 18.4539 18.7097 0.652588 41 0.652588Z" fill="#F5BE28"/>
<path d="M75.3299 70.8956H45.0672C44.5791 70.8956 44.2537 70.5749 44.2537 70.0938V40.2645C44.2537 39.7834 44.5791 39.4626 45.0672 39.4626H75.3299C75.818 39.4626 76.1434 39.7834 76.1434 40.2645V70.0938C76.1434 70.4145 75.818 70.8956 75.3299 70.8956ZM45.8807 69.2919H74.5164V41.0664H45.8807V69.2919Z" fill="#151515"/>
<path d="M63.6156 40.2645C63.6156 39.7834 63.941 39.4626 64.4291 39.4626C64.9172 39.4626 65.2427 39.7834 65.2427 40.2645V53.7358C65.2427 54.2169 64.9172 54.5377 64.4291 54.5377H56.1313C55.6432 54.5377 55.3178 54.2169 55.3178 53.7358V40.2645C55.3178 39.7834 55.6432 39.4626 56.1313 39.4626C56.6194 39.4626 56.9448 39.7834 56.9448 40.2645V53.0943H63.6156V40.2645Z" fill="#151515"/>
<path d="M36.9318 70.8956H6.66909C6.18098 70.8956 5.85558 70.5749 5.85558 70.0938V40.2645C5.85558 39.7834 6.18098 39.4626 6.66909 39.4626H36.9318C37.42 39.4626 37.7454 39.7834 37.7454 40.2645V70.0938C37.5827 70.4145 37.2572 70.8956 36.9318 70.8956ZM7.48261 69.2919H36.1183V41.0664H7.48261V69.2919Z" fill="#151515"/>
<path d="M25.0548 40.2645C25.0548 39.7834 25.3802 39.4626 25.8683 39.4626C26.3564 39.4626 26.6818 39.7834 26.6818 40.2645V53.7358C26.6818 54.2169 26.3564 54.5377 25.8683 54.5377H17.5704C17.0823 54.5377 16.7569 54.2169 16.7569 53.7358V40.2645C16.7569 39.7834 17.0823 39.4626 17.5704 39.4626C18.0585 39.4626 18.3839 39.7834 18.3839 40.2645V53.0943H25.0548V40.2645Z" fill="#151515"/>
<path d="M26.6819 40.2644C26.6819 40.7455 26.3565 41.0662 25.8684 41.0662C25.3803 41.0662 25.0549 40.7455 25.0549 40.2644V10.4352C25.0549 9.95405 25.3803 9.6333 25.8684 9.6333H56.1311C56.6192 9.6333 56.9446 9.95405 56.9446 10.4352V40.2644C56.9446 40.7455 56.6192 41.0662 56.1311 41.0662C55.643 41.0662 55.3176 40.7455 55.3176 40.2644V11.237H26.6819V40.2644Z" fill="#151515"/>
<path d="M44.2535 10.4352C44.2535 9.95405 44.5789 9.6333 45.0671 9.6333C45.5552 9.6333 45.8806 9.95405 45.8806 10.4352V23.9064C45.8806 24.3875 45.5552 24.7083 45.0671 24.7083H36.7692C36.2811 24.7083 35.9557 24.3875 35.9557 23.9064V10.4352C35.9557 9.95405 36.2811 9.6333 36.7692 9.6333C37.2573 9.6333 37.5827 9.95405 37.5827 10.4352V23.2649H44.2535V10.4352Z" fill="#151515"/>
<path d="M36.932 41.0664C36.4439 41.0664 36.1185 40.7456 36.1185 40.2645C36.1185 39.7834 36.4439 39.4626 36.932 39.4626H45.2299C45.718 39.4626 46.0434 39.7834 46.0434 40.2645C46.0434 40.7456 45.718 41.0664 45.2299 41.0664H36.932Z" fill="#151515"/>
</svg>
