<svg width="13" height="14" viewBox="0 0 13 14" fill="none" xmlns="http://www.w3.org/2000/svg">
<path d="M10.4324 10.3767L8.88294 9.15743C8.56543 8.90342 8.10822 8.95422 7.84151 9.25903C7.56211 9.57654 7.38431 9.79244 7.3208 9.84324C6.85089 10.3131 5.87297 9.62734 4.83155 8.58591C3.79013 7.54449 3.11702 6.57927 3.58693 6.10936C3.63773 6.05856 3.85363 5.86806 4.17114 5.58865C4.47595 5.32195 4.52675 4.86474 4.27274 4.54723L3.05352 2.9978C2.83761 2.7311 2.46931 2.6422 2.1645 2.7692C1.74539 2.947 0.996077 3.56931 0.792873 3.77252C-0.324749 4.90284 1.07228 7.46829 3.51073 9.91944C5.94918 12.3706 8.52733 13.7676 9.64495 12.6373C9.84816 12.4341 10.4705 11.6848 10.6483 11.2657C10.788 10.9482 10.6991 10.5926 10.4324 10.3767Z" fill="white"/>
<path d="M6.62228 4.92826C6.29207 4.85206 5.97456 5.10606 5.99996 5.44897C6.01266 5.66487 6.17777 5.84268 6.38097 5.90618C6.64768 5.96968 6.90168 6.10938 7.10489 6.31259C7.30809 6.51579 7.44779 6.76979 7.51129 7.0365C7.5621 7.2524 7.7399 7.40481 7.9685 7.41751C8.31141 7.44291 8.56541 7.1254 8.48921 6.7952C8.40031 6.36339 8.17171 5.94428 7.8288 5.60137C7.48589 5.25846 7.06679 5.02986 6.62228 4.92826Z" fill="white"/>
<path d="M9.9752 7.56996C10.28 7.59536 10.534 7.32866 10.5086 7.02385C10.4197 6.00783 9.9879 5.00451 9.21318 4.2298C8.43847 3.45508 7.43515 3.02327 6.41913 2.93437C6.11432 2.90897 5.84762 3.16298 5.87302 3.46778C5.88572 3.70909 6.07622 3.91229 6.33023 3.93769C7.13034 4.00119 7.90506 4.3441 8.50197 4.95371C9.11158 5.56332 9.44179 6.33804 9.51799 7.12546C9.51799 7.36676 9.72119 7.55726 9.9752 7.56996Z" fill="white"/>
<path d="M10.5848 2.84543C9.37826 1.6516 7.81613 1.01659 6.2286 0.965789C5.93649 0.953088 5.69519 1.20709 5.72059 1.4992C5.73329 1.7532 5.94919 1.95641 6.2032 1.96911C7.53672 2.01991 8.85755 2.55332 9.86087 3.56934C10.8769 4.58536 11.4103 5.90619 11.4484 7.22701C11.4611 7.48102 11.6516 7.69692 11.9183 7.70962C12.2104 7.73502 12.4644 7.49372 12.4517 7.20161C12.4136 5.61408 11.7786 4.05195 10.5848 2.84543Z" fill="white"/>
</svg>
