<svg width="18" height="19" viewBox="0 0 18 19" fill="none" xmlns="http://www.w3.org/2000/svg">
<path d="M9.12507 18.0632C13.9323 18.0632 17.8394 14.1561 17.8394 9.34888C17.8394 4.54162 13.9323 0.634521 9.12507 0.634521C4.31781 0.634521 0.410713 4.54162 0.410713 9.34888C0.410713 14.1561 4.31781 18.0632 9.12507 18.0632ZM9.12507 2.54976C12.8789 2.54976 15.9242 5.595 15.9242 9.34888C15.9242 13.1028 12.8789 16.148 9.12507 16.148C5.37119 16.148 2.32596 13.1028 2.32596 9.34888C2.32596 5.595 5.37119 2.54976 9.12507 2.54976Z" fill="#151515"/>
<path d="M8.74201 10.8812H11.9979C12.5342 10.8812 12.9555 10.4598 12.9555 9.92358C12.9555 9.38731 12.5342 8.96596 11.9979 8.96596H9.69964V4.94395C9.69964 4.40768 9.27828 3.98633 8.74201 3.98633C8.20575 3.98633 7.78439 4.40768 7.78439 4.94395V9.92358C7.78439 10.4598 8.20575 10.8812 8.74201 10.8812Z" fill="#151515"/>
</svg>
