<svg width="15" height="14" viewBox="0 0 15 14" fill="none" xmlns="http://www.w3.org/2000/svg">
<path d="M10.4208 8.29784L10.4157 8.34003C9.17879 7.72353 9.04941 7.6414 8.88966 7.88103C8.77885 8.04697 8.45598 8.42328 8.35866 8.53465C8.26023 8.64434 8.16235 8.65278 7.99529 8.57684C7.82654 8.49247 7.28485 8.31528 6.6436 7.74153C6.1441 7.29434 5.80885 6.7459 5.70985 6.57715C5.54504 6.29253 5.88985 6.25203 6.20373 5.65803C6.25998 5.53991 6.23129 5.44709 6.18967 5.36328C6.14748 5.27891 5.81167 4.45203 5.67104 4.12241C5.53604 3.79391 5.3971 3.83553 5.29304 3.83553C4.96904 3.80741 4.73223 3.81191 4.52354 4.02903C3.61567 5.02691 3.84461 6.05628 4.62142 7.1509C6.14804 9.1489 6.96142 9.51678 8.44867 10.0275C8.85029 10.1552 9.21648 10.1372 9.50616 10.0956C9.82904 10.0444 10.5001 9.69003 10.6402 9.29346C10.7836 8.8969 10.7836 8.56784 10.7414 8.4919C10.6998 8.41597 10.5895 8.37378 10.4208 8.29784Z" fill="white"/>
<path d="M12.1155 2.19018C7.79046 -1.99088 0.632654 1.04156 0.629841 6.93993C0.629841 8.11893 0.938653 9.26868 1.52703 10.284L0.573029 13.7501L4.13646 12.8209C8.58302 15.2227 14.0708 12.0334 14.073 6.9433C14.073 5.1568 13.3755 3.47549 12.1071 2.21212L12.1155 2.19018ZM12.9491 6.92474C12.9458 11.2183 8.23258 13.8997 4.5049 11.7082L4.3024 11.5879L2.19303 12.1363L2.75834 10.086L2.6239 9.87505C0.304154 6.18224 2.96928 1.356 7.36352 1.356C8.8564 1.356 10.2576 1.93818 11.3128 2.99287C12.3675 4.03856 12.9491 5.43974 12.9491 6.92474Z" fill="white"/>
</svg>
