<svg width="14" height="15" viewBox="0 0 14 15" fill="none" xmlns="http://www.w3.org/2000/svg">
<path d="M11.5834 3.40719C12.8908 4.61196 13.7112 6.3359 13.7112 8.24884C13.7112 11.8811 10.7564 14.8342 7.12584 14.8342C3.49359 14.8343 0.539001 11.8794 0.539001 8.24884C0.539001 6.37983 1.32214 4.69159 2.57733 3.49179L0.998135 1.9126C0.644852 1.55932 0.644852 0.98628 0.998135 0.632969C1.35142 0.279686 1.92446 0.279686 2.27777 0.632969L7.03802 5.39322L11.7983 0.632969C11.9741 0.455469 12.2069 0.367573 12.4381 0.367573C12.6693 0.367573 12.9004 0.455469 13.0779 0.632969C13.4312 0.986251 13.4312 1.55929 13.0779 1.9126L11.5834 3.40719ZM6.39669 7.31301L3.85527 4.7716C2.92895 5.64422 2.34774 6.8799 2.34774 8.24919C2.34774 10.8834 4.4902 13.0257 7.12427 13.0257C9.75834 13.0257 11.9008 10.8833 11.9008 8.24919C11.9008 6.83443 11.2821 5.563 10.3021 4.687L7.67606 7.31301C7.32278 7.66618 6.75131 7.66618 6.39643 7.31301H6.39669Z" fill="#151515"/>
</svg>
